<svg width="98" height="51" viewBox="0 0 98 51" fill="none" xmlns="http://www.w3.org/2000/svg">
<path d="M36.5001 49L35.943 50.3927C36.3427 50.5526 36.7918 50.533 37.1761 50.339C37.5604 50.145 37.8428 49.7952 37.9515 49.3786L36.5001 49ZM61.1245 49.5981C61.4548 50.3578 62.3384 50.7059 63.0981 50.3756C63.8579 50.0453 64.206 49.1616 63.8757 48.4019L61.1245 49.5981ZM62.7946 47.6763C62.0635 48.0659 61.7867 48.9744 62.1763 49.7055C62.566 50.4366 63.4745 50.7134 64.2056 50.3237L62.7946 47.6763ZM77.0001 38.5L75.7979 37.6029L77.0001 38.5ZM83.5001 16L84.8847 15.4231C84.683 14.9391 84.2432 14.5955 83.7248 14.5169L83.5001 16ZM55.5001 29L54.2954 28.1062C54.2926 28.1101 54.2898 28.1139 54.287 28.1177L55.5001 29ZM22.0001 38.5L23.2333 37.6462L23.2333 37.6462L22.0001 38.5ZM49.5001 2V0.5C49.1755 0.5 48.8597 0.605268 48.6001 0.800002L49.5001 2ZM61.5 22.7396L62.438 23.9101L61.5 22.7396ZM94.5257 49.2764C94.6784 50.0907 95.4622 50.627 96.2764 50.4743C97.0907 50.3216 97.627 49.5378 97.4743 48.7236L94.5257 49.2764ZM0.763941 48.1502C0.29461 48.8329 0.467544 49.7667 1.1502 50.2361C1.83286 50.7054 2.76673 50.5325 3.23606 49.8498L0.763941 48.1502ZM37.9515 49.3786C38.3808 47.7328 39.744 45.0749 41.8435 42.8394C43.9386 40.6085 46.5706 39 49.5001 39V36C45.4295 36 42.0615 38.2249 39.6566 40.7856C37.2561 43.3417 35.6193 46.4339 35.0486 48.6214L37.9515 49.3786ZM49.5001 39C52.4085 39 54.8691 40.5867 56.8875 42.8186C58.9024 45.0466 60.3248 47.7588 61.1245 49.5981L63.8757 48.4019C63.0087 46.4078 61.431 43.37 59.1126 40.8064C56.7977 38.2466 53.5916 36 49.5001 36V39ZM78.2022 39.3971C79.6494 37.4579 81.9619 33.1929 83.601 28.6667C84.4247 26.392 85.0998 23.994 85.4019 21.7424C85.7003 19.519 85.6576 17.2782 84.8847 15.4231L82.1154 16.5769C82.5925 17.7218 82.6967 19.3455 82.4286 21.3434C82.1643 23.3129 81.5596 25.4929 80.7802 27.6452C79.213 31.973 77.0255 35.9579 75.7979 37.6029L78.2022 39.3971ZM54.287 28.1177C51.0789 32.5288 48.9331 35.6462 48.252 36.668L50.7481 38.332C51.4003 37.3538 53.5212 34.2712 56.7132 29.8823L54.287 28.1177ZM37.0571 47.6073C35.4801 46.9765 32.8444 45.6972 30.1725 43.9455C27.485 42.1837 24.8752 40.0177 23.2333 37.6462L20.7668 39.3538C22.7249 42.1823 25.6984 44.5996 28.5277 46.4545C31.3724 48.3194 34.1866 49.6902 35.943 50.3927L37.0571 47.6073ZM23.2333 37.6462C21.1306 34.6089 19.3105 29.8069 18.2053 25.3862C17.6565 23.1911 17.2991 21.1495 17.1669 19.5339C17.1007 18.7243 17.0939 18.0554 17.1373 17.5449C17.1588 17.2909 17.1911 17.0969 17.2262 16.9564C17.2627 16.8101 17.2923 16.7618 17.2863 16.7717L14.7138 15.2283C14.3473 15.8392 14.2066 16.6015 14.148 17.2911C14.0859 18.0227 14.1025 18.8695 14.1769 19.7786C14.326 21.6005 14.7186 23.8089 15.2948 26.1138C16.4397 30.6931 18.3695 35.8911 20.7668 39.3538L23.2333 37.6462ZM17.2863 16.7717C17.1567 16.9878 16.998 17.0444 17.0181 17.0365C17.0417 17.0273 17.1515 16.9937 17.391 16.9784C17.8704 16.9476 18.5899 17.0048 19.5352 17.1723C21.4056 17.5037 23.8503 18.2088 26.3749 19.1017C28.8909 19.9915 31.4292 21.0474 33.4778 22.0565C34.503 22.5616 35.3862 23.0453 36.0745 23.4812C36.7954 23.9376 37.1917 24.2732 37.3477 24.4603L39.6523 22.5397C39.1833 21.9768 38.4546 21.4374 37.6794 20.9465C36.8717 20.4351 35.8876 19.8994 34.8035 19.3653C32.6333 18.2963 29.9842 17.196 27.3752 16.2733C24.7747 15.3537 22.157 14.5901 20.0586 14.2183C19.0195 14.0342 18.0281 13.9313 17.1989 13.9845C16.7841 14.0111 16.3403 14.0806 15.9268 14.242C15.51 14.4048 15.0309 14.6997 14.7138 15.2283L17.2863 16.7717ZM37.3477 24.4603C39.3254 26.8336 45.4711 34.7393 48.3131 38.4172L50.687 36.5828C47.8623 32.9273 41.6746 24.9664 39.6523 22.5397L37.3477 24.4603ZM39.9962 23.6069C40.1513 21.4356 40.8633 17.722 42.5067 13.834C44.1496 9.9473 46.6783 5.99132 50.4001 3.2L48.6001 0.800002C44.3218 4.00868 41.5173 8.46936 39.7434 12.666C37.9701 16.8613 37.1821 20.8977 37.0038 23.3931L39.9962 23.6069ZM83.7248 14.5169C78.9859 13.7989 69.2047 14.6436 60.562 21.569L62.438 23.9101C70.3369 17.5807 79.2436 16.8722 83.2754 17.4831L83.7248 14.5169ZM60.562 21.569C58.3607 23.333 56.2377 25.4884 54.2954 28.1062L56.7047 29.8938C58.4916 27.4853 60.4346 25.5154 62.438 23.9101L60.562 21.569ZM49.5001 3.5C49.174 3.5 48.9581 3.38399 48.9343 3.37178C48.878 3.34286 48.8587 3.32506 48.8848 3.34476C48.9347 3.38246 49.0388 3.47164 49.2026 3.63499C49.5233 3.95483 49.964 4.4491 50.4949 5.09856C51.5512 6.3908 52.8948 8.21181 54.2437 10.2793C55.593 12.3472 56.9312 14.6368 57.9882 16.8674C59.0543 19.1172 59.7916 21.2186 60.0123 22.9313L62.9877 22.5478C62.7084 20.3803 61.8206 17.9492 60.6992 15.5827C59.5687 13.1971 58.157 10.7868 56.7562 8.63996C55.3552 6.49257 53.9488 4.58378 52.8176 3.19992C52.2548 2.51133 51.7424 1.93098 51.3209 1.51072C51.1137 1.30401 50.8994 1.10677 50.6925 0.950551C50.5902 0.873299 50.4578 0.781668 50.3049 0.703159C50.1846 0.641363 49.8886 0.5 49.5001 0.5V3.5ZM64.2056 50.3237C67.3339 48.6565 73.5098 44.9541 77.3392 40.4747L75.059 38.5253C71.6149 42.5538 65.8642 46.0403 62.7946 47.6763L64.2056 50.3237ZM77.3392 40.4747C77.6406 40.1222 77.9293 39.7628 78.2022 39.3971L75.7979 37.6029C75.5679 37.911 75.3211 38.2187 75.059 38.5253L77.3392 40.4747ZM76.0766 40.995C79.0333 41.2373 83.5392 41.9918 87.411 43.4422C89.3475 44.1676 91.0528 45.0405 92.3193 46.0561C93.5837 47.0701 94.3135 48.1445 94.5257 49.2764L97.4743 48.7236C97.0865 46.6555 95.8038 45.0049 94.1961 43.7157C92.5906 42.4282 90.5645 41.4199 88.4633 40.6328C84.2598 39.0582 79.4652 38.2627 76.3216 38.005L76.0766 40.995ZM3.23606 49.8498C4.81827 47.5484 11.0131 41.9164 22.2549 39.9782L21.7452 37.0218C9.787 39.0836 2.84843 45.1182 0.763941 48.1502L3.23606 49.8498Z" fill="white"/>
</svg>
